<svg width="26" height="26" viewBox="0 0 26 26" fill="none" xmlns="http://www.w3.org/2000/svg">
<path d="M22.8824 12.2738L5.08402 3.8981C4.90479 3.81377 4.70532 3.782 4.50877 3.8065C4.31222 3.831 4.12665 3.91075 3.97361 4.03649C3.82057 4.16223 3.70633 4.32881 3.64418 4.51688C3.58202 4.70495 3.57449 4.90679 3.62245 5.09897L4.89138 10.1757L13.0137 13.2213L4.89138 16.2669L3.62245 21.3437C3.57358 21.536 3.58049 21.7383 3.64236 21.9268C3.70423 22.1153 3.81851 22.2824 3.97182 22.4083C4.12514 22.5343 4.31116 22.614 4.50812 22.6381C4.70507 22.6622 4.90483 22.6298 5.08402 22.5445L22.8824 14.1688C23.0623 14.0843 23.2144 13.9503 23.3209 13.7825C23.4274 13.6147 23.484 13.4201 23.484 13.2213C23.484 13.0226 23.4274 12.8279 23.3209 12.6601C23.2144 12.4924 23.0623 12.3584 22.8824 12.2738Z" fill="white"/>
</svg>
